<?xml version="1.0" standalone="no"?>
<!DOCTYPE svg PUBLIC "-//W3C//DTD SVG 20010904//EN"
 "http://www.w3.org/TR/2001/REC-SVG-20010904/DTD/svg10.dtd">
<svg version="1.0" xmlns="http://www.w3.org/2000/svg"
 width="192.000000pt" height="192.000000pt" viewBox="0 0 192.000000 192.000000"
 preserveAspectRatio="xMidYMid meet">
<metadata>
Created by potrace 1.14, written by Peter Selinger 2001-2017
</metadata>
<g transform="translate(0.000000,192.000000) scale(0.100000,-0.100000)"
fill="#000000" stroke="none">
<path d="M865 1677 c-215 -55 -353 -261 -324 -486 13 -106 21 -115 52 -55 29
56 89 129 120 146 17 9 15 3 -10 -28 -38 -49 -78 -129 -88 -174 -3 -19 -9 -42
-11 -51 -5 -17 74 -112 109 -130 18 -10 19 -9 13 14 -9 39 9 74 74 144 82 88
192 231 253 330 27 46 52 82 54 80 5 -6 -53 -142 -87 -205 l-30 -55 38 -46
c20 -25 65 -76 99 -114 64 -69 74 -92 62 -140 l-8 -27 27 19 c15 11 42 35 61
55 l35 36 -17 52 c-9 29 -36 78 -59 108 l-41 55 34 -26 c19 -14 52 -52 74 -84
l39 -59 18 42 c97 222 -15 493 -240 581 -67 27 -181 35 -247 18z"/>
<path d="M827 992 c-19 -21 -22 -42 -7 -42 6 0 10 4 10 10 0 5 9 14 20 20 15
8 23 6 40 -12 l20 -22 0 22 c0 39 -55 55 -83 24z"/>
<path d="M1020 990 c-12 -12 -18 -25 -14 -31 4 -6 14 -2 26 10 15 17 23 19 38
11 11 -6 20 -15 20 -20 0 -6 5 -10 10 -10 18 0 10 29 -12 44 -30 21 -44 20
-68 -4z"/>
<path d="M806 816 c-32 -36 -67 -68 -78 -72 -26 -8 -64 27 -55 50 9 23 37 32
48 15 7 -10 9 -7 7 11 -2 20 -9 26 -35 28 -70 7 -99 -84 -44 -139 42 -41 93
-40 158 5 26 18 72 40 101 48 47 14 57 14 104 0 29 -8 75 -30 101 -48 65 -45
116 -46 158 -5 37 38 40 88 5 120 -33 31 -80 26 -84 -9 -2 -18 0 -21 7 -11 11
16 39 8 47 -14 7 -18 -22 -55 -44 -55 -13 0 -48 32 -116 109 -27 30 -33 32
-70 27 -51 -8 -61 -8 -112 0 -40 6 -42 5 -98 -60z"/>
<path d="M826 698 l-48 -32 6 -45 c3 -25 26 -88 51 -139 59 -118 157 -224 223
-242 83 -22 142 15 142 90 0 53 -50 91 -91 70 -28 -16 -23 -36 9 -35 22 0 27
-4 27 -24 0 -13 -9 -30 -20 -37 -26 -17 -63 0 -84 38 -15 25 -13 32 36 135 29
59 54 126 58 148 6 40 5 41 -46 75 -48 31 -55 33 -92 23 -26 -7 -49 -8 -64 -2
-38 14 -55 11 -107 -23z"/>
</g>
</svg>
